inDegrees=no
num_controls=7
num_derivatives=13
num_iterations=149
num_multipliers=7
num_parameters=0
num_slacks=7
num_states=26
objective=4.927689
objective_accelerations=0.698256
objective_balance=0.060967
objective_effort=0.672721
objective_height=3.441918
objective_ligament=0.053828
solver_duration=1518.626190
status=Solve_Succeeded
success=true
DataType=double
version=3
OpenSimVersion=4.4-2022-07-23-0e9fedc
endheader
time	/jointset/ground_pelvis/pelvis_tilt/value	/jointset/ground_pelvis/pelvis_tx/value	/jointset/ground_pelvis/pelvis_ty/value	/jointset/hip_l/hip_flexion_l/value	/jointset/hip_l/hip_adduction_l/value	/jointset/hip_l/hip_rotation_l/value	/jointset/back/lumbar_extension/value	/jointset/patellofemoral_l/patellar_flexion_l/value	/jointset/knee_l/knee_flexion_l/value	/jointset/knee_l/knee_adduction_l/value	/jointset/knee_l/knee_rotation_l/value	/jointset/ankle_l/ankle_angle_l/value	/jointset/subtalar_l/subtalar_angle_l/value	/jointset/ground_pelvis/pelvis_tilt/speed	/jointset/ground_pelvis/pelvis_tx/speed	/jointset/ground_pelvis/pelvis_ty/speed	/jointset/hip_l/hip_flexion_l/speed	/jointset/hip_l/hip_adduction_l/speed	/jointset/hip_l/hip_rotation_l/speed	/jointset/back/lumbar_extension/speed	/jointset/patellofemoral_l/patellar_flexion_l/speed	/jointset/knee_l/knee_flexion_l/speed	/jointset/knee_l/knee_adduction_l/speed	/jointset/knee_l/knee_rotation_l/speed	/jointset/ankle_l/ankle_angle_l/speed	/jointset/subtalar_l/subtalar_angle_l/speed	/forceset/tau_hip_flexion_l	/forceset/tau_hip_adduction_l	/forceset/tau_hip_rotation_l	/forceset/tau_knee_flexion_l	/forceset/tau_ankle_angle_l	/forceset/tau_subtalar_angle_l	/forceset/tau_lumbar_extension	lambda_cid13_p0	lambda_cid13_p1	lambda_cid13_p2	lambda_cid13_p3	lambda_cid13_p4	lambda_cid13_p5	lambda_cid14_p0	/jointset/ground_pelvis/pelvis_tilt/accel	/jointset/ground_pelvis/pelvis_tx/accel	/jointset/ground_pelvis/pelvis_ty/accel	/jointset/hip_l/hip_flexion_l/accel	/jointset/hip_l/hip_adduction_l/accel	/jointset/hip_l/hip_rotation_l/accel	/jointset/back/lumbar_extension/accel	/jointset/patellofemoral_l/patellar_flexion_l/accel	/jointset/knee_l/knee_flexion_l/accel	/jointset/knee_l/knee_adduction_l/accel	/jointset/knee_l/knee_rotation_l/accel	/jointset/ankle_l/ankle_angle_l/accel	/jointset/subtalar_l/subtalar_angle_l/accel	gamma_cid13_p0	gamma_cid13_p1	gamma_cid13_p2	gamma_cid13_p3	gamma_cid13_p4	gamma_cid13_p5	gamma_cid14_p0
1	-0.1197064520043552	-0.06103873056859133	0.4240318805049996	2.089891093318712	-0.2988883575704767	0.121400282693666	-0.9599308050597828	2.09314636162749	2.09314636162759	0.1745309293518678	-0.1745329059296776	0.2718618253350494	0.09967742734011981	0.03927996641214004	0.004460962507545265	0.06821345599158712	-0.2636368646794044	-0.02033828307654879	-0.05536628454244101	-5.721216490118762e-06	-0.1285467269731978	-0.128546726973289	-0.005069385047423618	2.192476321548811e-05	0.09134649193843876	0.01783997393974155	-0.4001208298726212	-0.0307225678081707	-0.0624350085430876	-0.4168538946000754	0.07265719190394358	-0.003619011916088318	0.4471510336929836	-33.63920946234622	17.19854068549971	-14.31801775590105	24.89474498851675	-850.5378611051308	-21.09644762708241	-0.02277389366911803	-0.4760926859443118	-0.5670733329482577	2.515549491329849	-7.626383932364345	-0.4289579309580382	-1.902337789291296	-0.002790933053567494	-6.670419978177887	-6.670419978177879	-0.948623555967572	-0.02189239678532146	1.036216734105958	-0.03831364547804174	-3.880498711011664e-09	5.456605191300929e-08	-2.037026409609411e-07	2.182707649249773e-08	-3.195241877739811e-08	-5.481774497448022e-08	1.210022147041387e-08
1.01	-0.1193377707749106	-0.06102256549545715	0.4248402926915877	2.086872249510111	-0.2991115915812891	0.1207547443285055	-0.9599308331635841	2.091525798861921	2.091525798861912	0.1744301734067027	-0.1745325426879328	0.2728269005314584	0.09985589325567538	0.03445659404526354	-0.001229276353151832	0.09351547443120774	-0.3402157739056478	-0.02427401006966943	-0.07368431231471699	-2.980248485221194e-07	-0.1957109726680596	-0.1957109726681139	-0.01516765156415502	4.92466463376454e-05	0.1015966951157534	0.01786381893480052	-0.4007982935687397	-0.03044483006508038	-0.06242568478669642	-0.4189110151687284	0.07256441018261077	-0.003286525697616141	0.4480793275277852	-33.77310323381251	17.08981483864333	-14.31465277727399	25.09243145796648	-852.2956799893177	-21.62040397792397	-0.02289923881103697	-0.4854139227394598	-0.570198979757497	2.544490212793353	-7.686228577577012	-0.3706517612842439	-1.787978146637006	0.002149173334912276	-6.761202089742286	-6.761202089736926	-1.053286141492555	0.01476678055705072	1.008641911181689	0.02435124071308688	3.712909615864159e-09	4.022078840634964e-08	-2.689204370040807e-07	-2.485743578793734e-09	-5.859713548841202e-08	-1.256888534091525e-07	1.618605057217539e-08
1.02	-0.1190173141512694	-0.06106334277435545	0.4259031175010749	2.083085099777283	-0.2993731371975911	0.1199277371105346	-0.9599308189898755	2.089229238594484	2.089229238594364	0.1742258632079785	-0.174531961767403	0.2738923217199682	0.1000349211549245	0.02963504525117537	-0.006927507898949047	0.1190959805714022	-0.4172980495248008	-0.02800060417459865	-0.09166005510464525	2.734289260826289e-06	-0.2637462273470008	-0.263746227347024	-0.02578023575955112	6.546051730055393e-05	0.1114156903585673	0.01795237067846647	-0.4014757572648608	-0.03016709232199126	-0.06241636103030241	-0.4209681357373816	0.07247162846127909	-0.002954039479145128	0.4490076213625858	-33.89604552075265	16.98187174815695	-14.31449629307953	25.25608949506665	-853.9096380505739	-22.09191298082273	-0.02307908514375125	-0.475727971386644	-0.5686718699682796	2.571247031444623	-7.727057210946245	-0.3871313533198046	-1.833880792821776	-0.003269108560037497	-6.844621774993758	-6.844621774994928	-1.051487091700517	-0.02411399921724808	0.9499751472057943	-0.02537229575671665	1.822038841303496e-08	7.049416953441924e-10	-3.883418913967278e-07	-3.314334929812613e-08	-9.394281758689881e-08	-3.737219768537329e-07	3.41526003329132e-08
1.03	-0.1187447550373473	-0.06116098284858353	0.4272230588199794	2.078524974780414	-0.299670861550056	0.1189229819976569	-0.9599307857715087	2.086248302518463	2.086248302518333	0.1739127490508808	-0.1745314238801225	0.2750534594940782	0.1002150583875959	0.02490627589633996	-0.01258607073768751	0.1449308491574298	-0.4947748948738873	-0.0315039166190279	-0.1092505749956562	4.826629958991832e-06	-0.3325538322579534	-0.3325538322580497	-0.03689540666783138	4.71417186273798e-05	0.1207084495152163	0.01807851514108347	-0.402104563284012	-0.02983476573408364	-0.06231653723415633	-0.4231811564503862	0.07269043843153311	-0.002448696769777482	0.449975940929263	-33.89603407073604	16.76480384516921	-14.28263648568716	25.15625010472539	-855.4688045557499	-22.77145655487216	-0.02330194859930934	-0.4670258496082407	-0.5622960188261591	2.595365574156256	-7.765190324841458	-0.325790764170891	-1.715579376539816	0.002085992070965098	-6.915767071165816	-6.915767071176035	-1.149405036836045	0.009944263697304426	0.9034113238469577	0.03219116660343109	3.27984189496986e-08	-3.906774770142003e-08	-5.083164443439621e-07	-6.386569772815285e-08	-1.293772850464823e-07	-6.235628759616807e-07	5.226079010037532e-08
1.04	-0.1185185985033877	-0.06131477805679899	0.4288025005851386	2.073188642904464	-0.3000023909417976	0.1177435333280109	-0.9599307041123936	2.082575902948928	2.082575902948787	0.1734869085954161	-0.1745309421640416	0.2763044218645452	0.1003965737347598	0.02035452925844879	-0.01815853469642415	0.1709960698224011	-0.5725394253410403	-0.03476161203011487	-0.1265987664586315	1.242243809841642e-05	-0.402038926049699	-0.4020389260498614	-0.04832549543388175	5.422627553970424e-05	0.1293806096299659	0.0182279935770006	-0.4027333693031644	-0.0295024391461756	-0.06221671343800417	-0.425394177163391	0.07290924840178824	-0.001943354060408824	0.4509442604959405	-33.88564793629546	16.54755803874042	-14.25261941482444	25.02697261073179	-856.889691929535	-23.40673018200403	-0.02357915669283365	-0.4403234279977861	-0.5514520939679171	2.617317447233367	-7.784594234559512	-0.338007946651373	-1.785415107214681	-0.00216841507183055	-6.980119551152365	-6.980119551152123	-1.114470663254535	-0.01903332810018722	0.8258553388259013	-0.02070550109673299	4.859045497642446e-08	-8.706017460541669e-08	-6.363104933679443e-07	-9.209806311113498e-08	-1.634399054915097e-07	-9.194909357385131e-07	7.443862619556656e-08
1.05	-0.1183367457161106	-0.06152371614953599	0.4306436779376721	2.067073523986748	-0.3003652322677008	0.1163923761608912	-0.9599305804993956	2.078205548044278	2.078205548044059	0.1729448174344569	-0.1745304928393242	0.2776386835702504	0.1005795897366795	0.01607631241994482	-0.0235999346285918	0.1972714705789085	-0.6505052116321131	-0.03775907716786261	-0.1435763885806183	8.221118789837153e-06	-0.4721184956532982	-0.4721184956534633	-0.06014425654322399	3.914039931236275e-05	0.137338140978299	0.01837343592404712	-0.4032944092343265	-0.02913014835638866	-0.06200825461901927	-0.4277912664359997	0.07345286517561045	-0.001257598294510353	0.451926758160285	-33.74869560969316	16.21551415820008	-14.18798536954392	24.64614837104089	-858.262525047918	-24.27232255889203	-0.02389849385685635	-0.4125234791331169	-0.5361358944163227	2.637422038481881	-7.805695525847281	-0.2733536573712828	-1.645487176221042	-0.0001578470662046999	-7.03486135494013	-7.034861354940612	-1.223223432640823	0.007591857405165516	0.7606601645425376	0.03201683457356209	6.442042867471477e-08	-1.353094683065143e-07	-7.645551516443249e-07	-1.20252616523897e-07	-1.974596557173322e-07	-1.216859219286248e-06	9.67436387384993e-08
1.06	-0.1181958656306892	-0.06178619863190978	0.4327485634274947	2.060178122266229	-0.3007565958169878	0.1148731324902476	-0.959930621270911	2.073131800305596	2.0731318003053	0.1722830097428396	-0.1745301267584085	0.2790485122157799	0.1007640297084633	0.01215998888717886	-0.02886741262378025	0.2237376972802801	-0.7285959859018336	-0.04046605670700372	-0.1602160671638213	-2.045446875887566e-05	-0.5427174928559561	-0.5427174928561213	-0.07226880156723613	3.757751465176795e-05	0.1444939975948536	0.01851278754982213	-0.4038554491654903	-0.02875785756660094	-0.06179979580002237	-0.4301883557086089	0.07399648194943387	-0.0005718425286104189	0.4529092558246294	-33.6022835501377	15.88225608872227	-14.12366222474743	24.24224014774956	-859.5070603482393	-25.1025997915483	-0.0242705769976547	-0.3679447668501696	-0.5166677065720827	2.655482636206234	-7.809591830289055	-0.2799108269300603	-1.717826399457929	-0.007063268719851138	-7.084005070964113	-7.084005070963316	-1.175627446188506	-0.01632872978685824	0.6655203924701805	-0.02192364535106655	8.277863341685233e-08	-1.961461679033804e-07	-9.095282089625831e-07	-1.469342959209583e-07	-2.301753880842966e-07	-1.587986420871307e-06	1.254092226489209e-07
